<svg width="35" height="24" viewBox="0 0 35 24" fill="none" xmlns="http://www.w3.org/2000/svg">
<path fill-rule="evenodd" clip-rule="evenodd" d="M12.7635 18.6585V19.5446V20.4308H12.3756V20.2156C12.2525 20.3752 12.0658 20.4753 11.8121 20.4753C11.3118 20.4753 10.9196 20.0861 10.9196 19.5446C10.9196 19.0035 11.3118 18.6139 11.8121 18.6139C12.0658 18.6139 12.2525 18.7141 12.3756 18.8737V18.6585H12.7635ZM11.8603 18.9772C11.5245 18.9772 11.319 19.2331 11.319 19.5446C11.319 19.8561 11.5245 20.112 11.8603 20.112C12.1812 20.112 12.3978 19.8672 12.3978 19.5446C12.3978 19.2221 12.1812 18.9772 11.8603 18.9772ZM25.8722 19.5446C25.8722 19.2331 26.0777 18.9772 26.4135 18.9772C26.7347 18.9772 26.9509 19.2221 26.9509 19.5446C26.9509 19.8672 26.7347 20.112 26.4135 20.112C26.0777 20.112 25.8722 19.8561 25.8722 19.5446ZM27.317 17.9468V19.5446V20.4308H26.9287V20.2156C26.8057 20.3752 26.619 20.4753 26.3652 20.4753C25.8649 20.4753 25.4728 20.0861 25.4728 19.5446C25.4728 19.0035 25.8649 18.6139 26.3652 18.6139C26.619 18.6139 26.8057 18.7141 26.9287 18.8737V17.9468H27.317ZM17.5786 18.959C17.8286 18.959 17.9892 19.1147 18.0302 19.3889H17.1044C17.1459 19.133 17.3022 18.959 17.5786 18.959ZM16.6977 19.5446C16.6977 18.9921 17.0634 18.6139 17.5863 18.6139C18.0862 18.6139 18.4296 18.9921 18.4335 19.5446C18.4335 19.5964 18.4296 19.6448 18.4258 19.6927H17.101C17.157 20.0119 17.3847 20.1269 17.6346 20.1269C17.8136 20.1269 18.0041 20.0598 18.1537 19.9414L18.3438 20.227C18.1272 20.4087 17.8811 20.4753 17.6124 20.4753C17.0784 20.4753 16.6977 20.1082 16.6977 19.5446ZM22.2703 19.5446C22.2703 19.2331 22.4758 18.9772 22.8116 18.9772C23.1325 18.9772 23.3491 19.2221 23.3491 19.5446C23.3491 19.8672 23.1325 20.112 22.8116 20.112C22.4758 20.112 22.2703 19.8561 22.2703 19.5446ZM23.7148 18.6585V19.5446V20.4308H23.3268V20.2156C23.2034 20.3752 23.0171 20.4753 22.7633 20.4753C22.2631 20.4753 21.8709 20.0861 21.8709 19.5446C21.8709 19.0035 22.2631 18.6139 22.7633 18.6139C23.0171 18.6139 23.2034 18.7141 23.3268 18.8737V18.6585H23.7148ZM20.0795 19.5446C20.0795 20.0823 20.4563 20.4753 21.0314 20.4753C21.3001 20.4753 21.4791 20.4159 21.6731 20.264L21.4868 19.9525C21.3411 20.0564 21.1882 20.112 21.0198 20.112C20.7101 20.1082 20.4824 19.8858 20.4824 19.5446C20.4824 19.2034 20.7101 18.981 21.0198 18.9772C21.1882 18.9772 21.3411 19.0328 21.4868 19.1368L21.6731 18.8253C21.4791 18.6734 21.3001 18.6139 21.0314 18.6139C20.4563 18.6139 20.0795 19.0069 20.0795 19.5446ZM24.6106 18.8737C24.7114 18.7179 24.8571 18.6139 25.0809 18.6139C25.1595 18.6139 25.2715 18.6288 25.3573 18.6623L25.2377 19.0256C25.1557 18.9921 25.0737 18.981 24.9951 18.981C24.7413 18.981 24.6144 19.144 24.6144 19.4373V20.4307H24.2261V18.6585H24.6106V18.8737ZM14.6821 18.7994C14.4954 18.6772 14.2382 18.6139 13.9545 18.6139C13.5025 18.6139 13.2116 18.8291 13.2116 19.1814C13.2116 19.4704 13.4282 19.6486 13.8272 19.7042L14.0105 19.7301C14.2232 19.7598 14.3236 19.8154 14.3236 19.9155C14.3236 20.0526 14.1818 20.1307 13.9169 20.1307C13.6482 20.1307 13.4542 20.0454 13.3235 19.9453L13.1407 20.2453C13.3534 20.401 13.6221 20.4753 13.9131 20.4753C14.4283 20.4753 14.7269 20.2343 14.7269 19.8969C14.7269 19.5854 14.492 19.4224 14.1036 19.3668L13.9208 19.3405C13.7529 19.3184 13.6183 19.2853 13.6183 19.1665C13.6183 19.0366 13.7452 18.959 13.9579 18.959C14.1856 18.959 14.4061 19.0443 14.5142 19.1109L14.6821 18.7994ZM19.2174 18.8737C19.3178 18.7179 19.4635 18.6139 19.6874 18.6139C19.766 18.6139 19.8779 18.6288 19.9638 18.6623L19.8442 19.0256C19.7621 18.9921 19.6801 18.981 19.6015 18.981C19.3477 18.981 19.2209 19.144 19.2209 19.4373V20.4307H18.8329V18.6585H19.2174V18.8737ZM16.3768 18.6585H15.7424V18.1208H15.3502V18.6585H14.9883V19.0108H15.3502V19.8192C15.3502 20.2304 15.5108 20.4753 15.9697 20.4753C16.138 20.4753 16.3319 20.4235 16.455 20.3382L16.3431 20.0081C16.2273 20.0747 16.1004 20.1082 15.9996 20.1082C15.8056 20.1082 15.7424 19.9894 15.7424 19.8116V19.0108H16.3768V18.6585ZM10.5765 19.3184V20.4307H10.1843V19.4445C10.1843 19.144 10.0575 18.9772 9.79258 18.9772C9.53497 18.9772 9.35597 19.1406 9.35597 19.4483V20.4307H8.96378V19.4445C8.96378 19.144 8.83348 18.9772 8.57587 18.9772C8.31057 18.9772 8.13883 19.1406 8.13883 19.4483V20.4307H7.74707V18.6585H8.13541V18.8771C8.28109 18.6695 8.46736 18.6139 8.6579 18.6139C8.93046 18.6139 9.12442 18.7328 9.24745 18.9293C9.41193 18.6806 9.6469 18.6101 9.87461 18.6139C10.3078 18.6178 10.5765 18.8996 10.5765 19.3184Z" fill="#231F20"/>
<path d="M20.4321 15.6471H14.5527V5.15114H20.4321V15.6471Z" fill="#FF5F00"/>
<path d="M14.9262 10.3993C14.9262 8.27017 15.9297 6.37358 17.4925 5.15135C16.3497 4.25759 14.9074 3.72413 13.3399 3.72413C9.62913 3.72413 6.62109 6.71267 6.62109 10.3993C6.62109 14.086 9.62913 17.0745 13.3399 17.0745C14.9074 17.0745 16.3497 16.5411 17.4925 15.6473C15.9297 14.4251 14.9262 12.5285 14.9262 10.3993Z" fill="#EB001B"/>
<path d="M28.364 10.3993C28.364 14.086 25.356 17.0745 21.6452 17.0745C20.0777 17.0745 18.6354 16.5411 17.4922 15.6473C19.0554 14.4251 20.0589 12.5285 20.0589 10.3993C20.0589 8.27017 19.0554 6.37358 17.4922 5.15135C18.6354 4.25759 20.0777 3.72413 21.6452 3.72413C25.356 3.72413 28.364 6.71267 28.364 10.3993Z" fill="#F79E1B"/>
</svg>
