<svg width="59" height="40" viewBox="0 0 59 40" fill="none" xmlns="http://www.w3.org/2000/svg">
<path fill-rule="evenodd" clip-rule="evenodd" d="M10.4974 13.7953C10.5179 13.7952 10.5403 13.7948 10.5645 13.7944C11.0402 13.7863 12.2027 13.7665 12.7093 15.4781C13.0678 16.6897 13.639 18.6744 14.4228 21.4321H14.742C15.5826 18.5247 16.16 16.5401 16.4742 15.4781C16.9799 13.7695 18.1987 13.7862 18.7897 13.7943C18.8273 13.7949 18.8624 13.7953 18.8946 13.7953L23.0442 13.7953V26.7191H18.8148V19.1029H18.5312L16.1735 26.7191H12.9914L10.6337 19.0973H10.35V26.7191H6.12061V13.7953L10.4974 13.7953ZM29.1177 13.7953V21.4172H29.4551L32.323 15.1498C32.8797 13.9026 34.0662 13.7953 34.0662 13.7953H38.1591V26.7191H33.8413V19.0973H33.5039L30.6922 25.3647C30.1355 26.6062 28.8927 26.7191 28.8927 26.7191H24.7999V13.7953H29.1177ZM48.4953 22.8693C50.5894 22.8693 52.4808 21.6456 53.0831 19.9368H39.8614V26.7191H43.9673V22.8693H48.4953Z" fill="#40A548"/>
<path d="M48.1704 14.0022H39.123C39.3384 16.8795 41.8133 19.3426 44.3753 19.3426H52.8454C53.3342 16.9513 51.6515 14.0022 48.1704 14.0022Z" fill="#1291D0"/>
</svg>
