<svg width="43" height="30" viewBox="0 0 43 30" fill="none" xmlns="http://www.w3.org/2000/svg">
<path fill-rule="evenodd" clip-rule="evenodd" d="M18.5378 14.6341L18.79 13.0257L18.2282 13.0125H15.5454L17.4098 1.14298C17.4157 1.10704 17.4344 1.07368 17.4618 1.04994C17.4894 1.0262 17.5245 1.01318 17.5613 1.01318H22.0848C23.5867 1.01318 24.6231 1.3269 25.1641 1.94619C25.4178 2.23672 25.5793 2.54039 25.6575 2.87445C25.7395 3.22506 25.7409 3.64389 25.6609 4.15482L25.6551 4.19198V4.51939L25.9088 4.66371C26.1224 4.7775 26.2922 4.90771 26.4224 5.05677C26.6393 5.30524 26.7797 5.62099 26.839 5.9952C26.9003 6.38012 26.8801 6.83829 26.7797 7.35694C26.6639 7.95345 26.4768 8.47305 26.2241 8.89812C25.9917 9.28983 25.6956 9.6148 25.344 9.86653C25.0083 10.1058 24.6096 10.2874 24.1586 10.4036C23.7217 10.5178 23.2235 10.5755 22.677 10.5755H22.325C22.0734 10.5755 21.8289 10.6665 21.6369 10.8296C21.4444 10.9962 21.3172 11.2238 21.2781 11.4727L21.2515 11.6175L20.8059 14.4526L20.7857 14.5567C20.7803 14.5896 20.7711 14.606 20.7576 14.6172C20.7456 14.6273 20.7283 14.6341 20.7114 14.6341H18.5378Z" fill="#28356A"/>
<path fill-rule="evenodd" clip-rule="evenodd" d="M26.1493 4.22986C26.1359 4.31653 26.1204 4.40509 26.1031 4.4961C25.5065 7.57141 23.4655 8.63381 20.859 8.63381H19.5318C19.213 8.63381 18.9443 8.86615 18.8947 9.1819L18.0227 14.7353C17.9904 14.9427 18.1496 15.1295 18.3579 15.1295H20.7118C20.9905 15.1295 21.2273 14.9262 21.2712 14.6502L21.2943 14.5301L21.7375 11.7061L21.766 11.5512C21.8094 11.2743 22.0468 11.0708 22.3254 11.0708H22.6775C24.9581 11.0708 26.7435 10.1412 27.2653 7.45084C27.4832 6.32699 27.3704 5.38856 26.7936 4.72858C26.6191 4.5296 26.4025 4.3644 26.1493 4.22986Z" fill="#298FC2"/>
<path fill-rule="evenodd" clip-rule="evenodd" d="M25.5251 3.98011C25.434 3.95339 25.3399 3.92925 25.2435 3.90741C25.1465 3.88612 25.0472 3.86727 24.945 3.85072C24.5871 3.79267 24.195 3.76514 23.775 3.76514H20.2294C20.142 3.76514 20.0591 3.78494 19.9849 3.82075C19.8213 3.89968 19.6999 4.05512 19.6705 4.24541L18.9161 9.04215L18.8945 9.18199C18.9441 8.86624 19.2128 8.6339 19.5316 8.6339H20.8588C23.4654 8.6339 25.5064 7.57096 26.1029 4.49619C26.1207 4.40518 26.1357 4.31661 26.1491 4.22995C25.9982 4.14952 25.8348 4.08075 25.6587 4.02216C25.6152 4.00765 25.5704 3.99368 25.5251 3.98011Z" fill="#22284F"/>
<path fill-rule="evenodd" clip-rule="evenodd" d="M19.6701 4.24518C19.6996 4.05489 19.821 3.89945 19.9846 3.82106C20.0593 3.78512 20.1417 3.76532 20.2291 3.76532H23.7747C24.1947 3.76532 24.5868 3.79298 24.9446 3.85103C25.0469 3.86745 25.1462 3.88643 25.2432 3.90773C25.3396 3.92943 25.4336 3.95371 25.5248 3.98029C25.5701 3.99385 25.6149 4.00796 25.6588 4.02193C25.8348 4.08052 25.9984 4.14983 26.1493 4.22972C26.3268 3.09326 26.1478 2.31948 25.5359 1.61881C24.8612 0.847339 23.6435 0.517212 22.0853 0.517212H17.5616C17.2434 0.517212 16.9718 0.749549 16.9227 1.06584L15.0385 13.0574C15.0014 13.2946 15.1836 13.5087 15.4219 13.5087H18.2146L19.6701 4.24518Z" fill="#28356A"/>
<path fill-rule="evenodd" clip-rule="evenodd" d="M5.20965 17.8987H1.91144C1.68571 17.8987 1.49376 18.0633 1.4585 18.2871L0.124544 26.7787C0.0980675 26.9464 0.227343 27.0973 0.396604 27.0973H1.97115C2.19687 27.0973 2.38883 26.9328 2.42408 26.7086L2.78381 24.4182C2.81853 24.194 3.01089 24.0294 3.23621 24.0294H4.28028C6.45283 24.0294 7.70669 22.9737 8.03427 20.882C8.18178 19.9668 8.04048 19.2478 7.61361 18.7442C7.14487 18.1912 6.31343 17.8987 5.20965 17.8987ZM5.58997 21.0002C5.40963 22.1884 4.50538 22.1884 3.63111 22.1884H3.13333L3.48252 19.9692C3.50332 19.8351 3.61895 19.7364 3.75404 19.7364H3.98219C4.57778 19.7364 5.1396 19.7364 5.42989 20.0772C5.60307 20.2805 5.65602 20.5827 5.58997 21.0002Z" fill="#28356A"/>
<path fill-rule="evenodd" clip-rule="evenodd" d="M15.1529 20.8977H13.5735C13.4389 20.8977 13.3226 20.9965 13.3019 21.1306L13.232 21.5741L13.1216 21.4134C12.7797 20.9151 12.0171 20.7485 11.2562 20.7485C9.5108 20.7485 8.02014 22.0758 7.72984 23.9376C7.57896 24.8663 7.79347 25.7544 8.31827 26.3737C8.79958 26.9431 9.48824 27.1805 10.3075 27.1805C11.7139 27.1805 12.4936 26.2725 12.4936 26.2725L12.4232 26.7132C12.3967 26.8817 12.526 27.0327 12.6943 27.0327H14.1169C14.3432 27.0327 14.5342 26.8681 14.5698 26.6439L15.4234 21.2163C15.4504 21.0492 15.3216 20.8977 15.1529 20.8977ZM12.9512 23.9842C12.7989 24.89 12.0828 25.4982 11.1693 25.4982C10.7107 25.4982 10.3442 25.3505 10.1088 25.0707C9.87537 24.7928 9.78676 24.3972 9.86092 23.9565C10.0033 23.0583 10.7314 22.4302 11.6309 22.4302C12.0794 22.4302 12.444 22.58 12.6842 22.8621C12.9248 23.1473 13.0203 23.5454 12.9512 23.9842Z" fill="#28356A"/>
<path fill-rule="evenodd" clip-rule="evenodd" d="M23.4427 21.0338H21.8555C21.7041 21.0338 21.5618 21.1094 21.476 21.2358L19.287 24.4732L18.3591 21.362C18.3008 21.1674 18.1219 21.0338 17.9193 21.0338H16.3597C16.1701 21.0338 16.0385 21.2198 16.0987 21.3989L17.847 26.5499L16.2034 28.8796C16.0742 29.0631 16.2044 29.3153 16.4277 29.3153H18.0129C18.1634 29.3153 18.3041 29.2417 18.3895 29.1179L23.6683 21.4672C23.7948 21.2842 23.6649 21.0338 23.4427 21.0338Z" fill="#28356A"/>
<path fill-rule="evenodd" clip-rule="evenodd" d="M28.7339 17.8987H25.4353C25.2101 17.8987 25.0182 18.0633 24.9829 18.2871L23.649 26.7787C23.6225 26.9464 23.7518 27.0973 23.9201 27.0973H25.6128C25.7699 27.0973 25.9045 26.9822 25.929 26.8253L26.3077 24.4182C26.3424 24.194 26.5349 24.0294 26.7601 24.0294H27.8037C29.9767 24.0294 31.2302 22.9737 31.5581 20.882C31.7062 19.9668 31.5639 19.2478 31.1371 18.7442C30.6687 18.1912 29.8378 17.8987 28.7339 17.8987ZM29.1145 21.0002C28.9346 22.1884 28.0303 22.1884 27.1555 22.1884H26.6584L27.008 19.9692C27.0287 19.8351 27.1435 19.7364 27.279 19.7364H27.5071C28.1022 19.7364 28.6646 19.7364 28.9548 20.0772C29.128 20.2805 29.1806 20.5827 29.1145 21.0002Z" fill="#298FC2"/>
<path fill-rule="evenodd" clip-rule="evenodd" d="M38.6747 20.8977H37.0962C36.9607 20.8977 36.8455 20.9965 36.8252 21.1306L36.7552 21.5741L36.6443 21.4134C36.3024 20.9151 35.5404 20.7485 34.7794 20.7485C33.0341 20.7485 31.544 22.0758 31.2537 23.9376C31.1032 24.8663 31.3168 25.7544 31.8414 26.3737C32.3238 26.9431 33.0114 27.1805 33.8308 27.1805C35.237 27.1805 36.0169 26.2725 36.0169 26.2725L35.9465 26.7132C35.92 26.8817 36.0492 27.0327 36.2186 27.0327H37.6407C37.8659 27.0327 38.0579 26.8681 38.0931 26.6439L38.9471 21.2163C38.9732 21.0492 38.8439 20.8977 38.6747 20.8977ZM36.4731 23.9842C36.3217 24.89 35.6045 25.4982 34.6911 25.4982C34.2334 25.4982 33.866 25.3505 33.6305 25.0707C33.3972 24.7928 33.3094 24.3972 33.3826 23.9565C33.526 23.0583 34.2531 22.4302 35.1527 22.4302C35.6011 22.4302 35.9657 22.58 36.2059 22.8621C36.4474 23.1473 36.5429 23.5454 36.4731 23.9842Z" fill="#298FC2"/>
<path fill-rule="evenodd" clip-rule="evenodd" d="M40.4055 18.1321L39.0518 26.7792C39.0253 26.9468 39.1545 27.0978 39.3228 27.0978H40.6837C40.91 27.0978 41.1018 26.9332 41.1365 26.709L42.4714 18.2178C42.4981 18.0502 42.3688 17.8987 42.2005 17.8987H40.6766C40.542 17.8991 40.4263 17.998 40.4055 18.1321Z" fill="#298FC2"/>
</svg>
