<svg width="31" height="30" viewBox="0 0 31 30" fill="none" xmlns="http://www.w3.org/2000/svg">
<path d="M29.6347 1.74935C29.5745 1.52098 29.4548 1.31267 29.2879 1.14567C29.1209 0.978682 28.9125 0.858996 28.6842 0.798834C25.949 0.0884194 23.0688 0.164935 20.3752 1.01957C17.6816 1.87421 15.2842 3.47221 13.4589 5.62958L11.9723 7.39469L8.49928 6.55671C7.65493 6.26235 6.73259 6.28345 5.90258 6.61611C5.07258 6.94878 4.39098 7.57053 3.98365 8.36655L1.05006 13.5664C0.947275 13.7486 0.888778 13.9523 0.8793 14.1612C0.869821 14.3702 0.909629 14.5784 0.995504 14.7691C1.08138 14.9598 1.21091 15.1276 1.37364 15.259C1.53636 15.3904 1.72771 15.4816 1.93222 15.5254L6.02922 16.4036C5.68217 17.4601 5.43435 18.5466 5.289 19.6491C5.26265 19.8516 5.28316 20.0575 5.34897 20.2509C5.41478 20.4442 5.52411 20.6199 5.66854 20.7643L9.80201 24.8978C9.92577 25.0216 10.0727 25.1199 10.2345 25.1869C10.3962 25.2539 10.5696 25.2884 10.7447 25.2884C10.7831 25.2884 10.8215 25.2865 10.8606 25.2832C11.9877 25.1819 13.1011 24.9629 14.1827 24.6299L15.0409 28.6341C15.0848 28.8386 15.1761 29.0299 15.3075 29.1925C15.4389 29.3552 15.6067 29.4847 15.7973 29.5705C15.988 29.6564 16.1962 29.6962 16.4051 29.6868C16.614 29.6774 16.8177 29.619 16.9999 29.5163L22.2069 26.5794C22.9398 26.1341 23.5123 25.4676 23.8418 24.6758C24.1713 23.8841 24.2408 23.0082 24.0403 22.1745L23.1487 18.4958L24.7981 16.9791C26.9635 15.159 28.5676 12.7614 29.4239 10.0653C30.2801 7.36918 30.3532 4.48538 29.6347 1.74935ZM4.26296 13.2975L6.33782 9.61786C6.4667 9.36805 6.68626 9.17701 6.95149 9.08392C7.21672 8.99083 7.50752 9.00274 7.76425 9.11721L10.0541 9.67214L9.18746 10.7012C8.36581 11.686 7.65516 12.7583 7.06837 13.8987L4.26296 13.2975ZM20.8899 24.2604L17.2688 26.3027L16.6961 23.6298C17.857 23.0509 18.9385 22.325 19.914 21.47L20.9054 20.5585L21.4433 22.778C21.5131 23.052 21.4974 23.3408 21.3986 23.6058C21.2997 23.8707 21.1222 24.0991 20.8899 24.2604ZM23.0423 14.9734L18.1295 19.4883C16.1849 21.17 13.7863 22.239 11.2356 22.5606L8.02988 19.3549C8.46044 16.7975 9.5655 14.4013 11.2311 12.4135L13.4688 9.75662C13.5061 9.71762 13.5409 9.67631 13.573 9.63293L15.4863 7.36135C16.9009 5.69055 18.7336 4.4251 20.7972 3.69421C22.8608 2.96333 25.0815 2.7932 27.2324 3.20119C27.6502 5.35882 27.4819 7.58902 26.745 9.65949C26.008 11.73 24.7294 13.565 23.0423 14.9734ZM21.8116 6.75501C21.416 6.75501 21.0293 6.87231 20.7004 7.09207C20.3715 7.31183 20.1152 7.62419 19.9638 7.98964C19.8125 8.35509 19.7728 8.75723 19.85 9.14519C19.9272 9.53315 20.1177 9.88952 20.3974 10.1692C20.6771 10.4489 21.0334 10.6394 21.4214 10.7166C21.8094 10.7937 22.2115 10.7541 22.577 10.6028C22.9424 10.4514 23.2548 10.195 23.4745 9.86615C23.6943 9.53725 23.8116 9.15057 23.8116 8.75501C23.8116 8.49235 23.7599 8.23227 23.6594 7.9896C23.5589 7.74694 23.4115 7.52645 23.2258 7.34073C23.0401 7.155 22.8196 7.00768 22.5769 6.90718C22.3343 6.80668 22.0742 6.75496 21.8115 6.75498L21.8116 6.75501Z" fill="#EFEFEF"/>
</svg>
