<svg width="22" height="28" viewBox="0 0 22 28" fill="none" xmlns="http://www.w3.org/2000/svg">
<path d="M21.1735 2.86666C21.0186 2.74136 20.8376 2.65236 20.6438 2.60621C20.4499 2.56006 20.2483 2.55794 20.0535 2.59999C18.6288 2.89859 17.158 2.90239 15.7317 2.61117C14.3054 2.31995 12.9538 1.73988 11.7602 0.906661C11.537 0.751824 11.2718 0.668854 11.0002 0.668854C10.7285 0.668854 10.4634 0.751824 10.2402 0.906661C9.04651 1.73988 7.69494 2.31995 6.26866 2.61117C4.84238 2.90239 3.37159 2.89859 1.94684 2.59999C1.75209 2.55794 1.55039 2.56006 1.35657 2.60621C1.16275 2.65236 0.981738 2.74136 0.826837 2.86666C0.672143 2.99215 0.547532 3.15071 0.46216 3.33068C0.376789 3.51065 0.332827 3.70747 0.333504 3.90666V13.84C0.332318 15.7517 0.787868 17.6359 1.66222 19.3359C2.53657 21.0359 3.80441 22.5024 5.36017 23.6133L10.2268 27.08C10.4527 27.2408 10.723 27.3272 11.0002 27.3272C11.2774 27.3272 11.5477 27.2408 11.7735 27.08L16.6402 23.6133C18.1959 22.5024 19.4638 21.0359 20.3381 19.3359C21.2125 17.6359 21.668 15.7517 21.6668 13.84V3.90666C21.6675 3.70747 21.6236 3.51065 21.5382 3.33068C21.4528 3.15071 21.3282 2.99215 21.1735 2.86666ZM19.0002 13.84C19.0012 15.3263 18.6472 16.7914 17.9677 18.1134C17.2882 19.4353 16.3028 20.5758 15.0935 21.44L11.0002 24.36L6.90684 21.44C5.69755 20.5758 4.71215 19.4353 4.03264 18.1134C3.35312 16.7914 2.99915 15.3263 3.00017 13.84V5.43999C5.79541 5.67924 8.59489 5.03069 11.0002 3.58666C13.4054 5.03069 16.2049 5.67924 19.0002 5.43999V13.84Z" fill="#EFEFEF"/>
</svg>
