<svg width="27" height="22" viewBox="0 0 27 22" fill="none" xmlns="http://www.w3.org/2000/svg">
<path d="M13.5 0.666656C11.1595 0.666716 8.86031 1.28284 6.83344 2.45311C4.80656 3.62338 3.12344 5.30656 1.95324 7.33347C0.783031 9.36038 0.166977 11.6596 0.166992 14.0001C0.167007 16.3405 0.78309 18.6398 1.95332 20.6667C2.13013 20.9743 2.42191 21.1991 2.76448 21.2916C3.10705 21.3842 3.47234 21.3368 3.77999 21.16C4.08764 20.9832 4.31245 20.6914 4.40497 20.3488C4.49749 20.0063 4.45013 19.641 4.27332 19.3333C3.32858 17.7148 2.83157 15.8741 2.83332 14C2.83396 12.3642 3.21079 10.7505 3.93469 9.28368C4.65858 7.81681 5.71014 6.53609 7.00805 5.54054C8.30596 4.54499 9.81545 3.86128 11.4198 3.54228C13.0242 3.22328 14.6804 3.27753 16.2604 3.70085C17.8404 4.12417 19.302 4.90521 20.5319 5.98357C21.7619 7.06193 22.7274 8.40873 23.3537 9.91982C23.9801 11.4309 24.2505 13.0658 24.1441 14.6981C24.0376 16.3304 23.5572 17.9163 22.74 19.3333C22.6518 19.4855 22.5946 19.6536 22.5717 19.828C22.5488 20.0024 22.5606 20.1795 22.6065 20.3493C22.6523 20.5191 22.7313 20.6782 22.8389 20.8173C22.9465 20.9564 23.0805 21.0729 23.2333 21.16C23.5395 21.3338 23.902 21.3795 24.2417 21.2871C24.5814 21.1947 24.8708 20.9716 25.0467 20.6667C26.2169 18.6398 26.833 16.3405 26.833 14.0001C26.833 11.6596 26.2169 9.36038 25.0467 7.33347C23.8765 5.30656 22.1934 3.62338 20.1665 2.45311C18.1397 1.28284 15.8404 0.666716 13.5 0.666656ZM17.2867 8.34666L15.22 10.4C14.685 10.1362 14.0964 9.99935 13.5 9.99999C12.7089 9.99999 11.9355 10.2346 11.2777 10.6741C10.6199 11.1136 10.1072 11.7384 9.80447 12.4693C9.50172 13.2002 9.4225 14.0044 9.57684 14.7804C9.73119 15.5563 10.1121 16.269 10.6716 16.8284C11.231 17.3878 11.9437 17.7688 12.7196 17.9231C13.4955 18.0775 14.2998 17.9983 15.0307 17.6955C15.7616 17.3928 16.3863 16.8801 16.8259 16.2223C17.2654 15.5645 17.5 14.7911 17.5 14C17.4991 13.408 17.3622 12.8241 17.1 12.2933L19.1667 10.24C19.2916 10.116 19.3908 9.96857 19.4585 9.80609C19.5262 9.64361 19.5611 9.46934 19.5611 9.29332C19.5611 9.11731 19.5262 8.94303 19.4585 8.78055C19.3908 8.61808 19.2916 8.47061 19.1667 8.34666C18.9168 8.09832 18.5789 7.95893 18.2267 7.95893C17.8744 7.95893 17.5365 8.09832 17.2867 8.34666ZM13.5 15.3333C13.1464 15.3333 12.8072 15.1928 12.5572 14.9428C12.3071 14.6928 12.1667 14.3536 12.1667 14C12.1667 13.6464 12.3071 13.3072 12.5572 13.0572C12.8072 12.8071 13.1464 12.6667 13.5 12.6667C13.8479 12.6646 14.1828 12.7985 14.4333 13.04C14.5609 13.165 14.6621 13.3145 14.7308 13.4794C14.7995 13.6443 14.8344 13.8213 14.8333 14C14.8333 14.3536 14.6928 14.6928 14.4428 14.9428C14.1927 15.1928 13.8536 15.3333 13.5 15.3333Z" fill="#EFEFEF"/>
</svg>
