<svg width="31" height="28" viewBox="0 0 31 28" fill="none" xmlns="http://www.w3.org/2000/svg">
<path d="M26.1668 0.666656H12.8335C11.7726 0.666656 10.7552 1.08808 10.0051 1.83823C9.25492 2.58838 8.8335 3.60579 8.8335 4.66666V14C8.8335 15.0609 9.25492 16.0783 10.0051 16.8284C10.7552 17.5786 11.7726 18 12.8335 18H26.1668C27.2277 18 28.2451 17.5786 28.9953 16.8284C29.7454 16.0783 30.1668 15.0609 30.1668 14V4.66666C30.1668 3.60579 29.7454 2.58838 28.9953 1.83823C28.2451 1.08808 27.2277 0.666656 26.1668 0.666656ZM27.5002 14C27.5002 14.3536 27.3597 14.6928 27.1096 14.9428C26.8596 15.1928 26.5205 15.3333 26.1668 15.3333H12.8335C12.4799 15.3333 12.1407 15.1928 11.8907 14.9428C11.6406 14.6928 11.5002 14.3536 11.5002 14V4.66666C11.5002 4.31303 11.6406 3.9739 11.8907 3.72385C12.1407 3.4738 12.4799 3.33332 12.8335 3.33332H26.1668C26.5205 3.33332 26.8596 3.4738 27.1096 3.72385C27.3597 3.9739 27.5002 4.31303 27.5002 4.66666V14ZM22.8335 8.66666C22.3399 8.66833 21.8646 8.8537 21.5002 9.18666C21.2135 8.92606 20.8572 8.75435 20.4748 8.69239C20.0923 8.63044 19.7001 8.68091 19.3458 8.83766C18.9914 8.99442 18.6903 9.25072 18.4789 9.57541C18.2675 9.90011 18.1549 10.2792 18.1549 10.6667C18.1549 11.0541 18.2675 11.4332 18.4789 11.7579C18.6903 12.0826 18.9914 12.3389 19.3458 12.4956C19.7001 12.6524 20.0923 12.7029 20.4748 12.6409C20.8572 12.579 21.2135 12.4073 21.5002 12.1467C21.7409 12.3655 22.0315 12.5223 22.3466 12.6034C22.6616 12.6846 22.9918 12.6876 23.3083 12.6123C23.6248 12.537 23.9182 12.3856 24.163 12.1712C24.4078 11.9569 24.5965 11.686 24.7129 11.3822C24.8294 11.0784 24.8699 10.7507 24.831 10.4277C24.7921 10.1046 24.675 9.79596 24.4899 9.52842C24.3047 9.26088 24.0571 9.04255 23.7684 8.89238C23.4798 8.74221 23.1589 8.66473 22.8335 8.66666ZM20.8335 20.6667C20.4799 20.6667 20.1407 20.8071 19.8907 21.0572C19.6406 21.3072 19.5002 21.6464 19.5002 22V23.3333C19.5002 23.6869 19.3597 24.0261 19.1096 24.2761C18.8596 24.5262 18.5205 24.6667 18.1668 24.6667H4.8335C4.47987 24.6667 4.14074 24.5262 3.89069 24.2761C3.64064 24.0261 3.50016 23.6869 3.50016 23.3333V18H4.8335C5.18712 18 5.52626 17.8595 5.7763 17.6095C6.02635 17.3594 6.16683 17.0203 6.16683 16.6667C6.16683 16.313 6.02635 15.9739 5.7763 15.7238C5.52626 15.4738 5.18712 15.3333 4.8335 15.3333H3.50016V14C3.50016 13.6464 3.64064 13.3072 3.89069 13.0572C4.14074 12.8071 4.47987 12.6667 4.8335 12.6667C5.18712 12.6667 5.52626 12.5262 5.7763 12.2761C6.02635 12.0261 6.16683 11.6869 6.16683 11.3333C6.16683 10.9797 6.02635 10.6406 5.7763 10.3905C5.52626 10.1405 5.18712 9.99999 4.8335 9.99999C3.77263 9.99999 2.75521 10.4214 2.00507 11.1716C1.25492 11.9217 0.833496 12.9391 0.833496 14V23.3333C0.833496 24.3942 1.25492 25.4116 2.00507 26.1618C2.75521 26.9119 3.77263 27.3333 4.8335 27.3333H18.1668C19.2277 27.3333 20.2451 26.9119 20.9953 26.1618C21.7454 25.4116 22.1668 24.3942 22.1668 23.3333V22C22.1668 21.6464 22.0264 21.3072 21.7763 21.0572C21.5263 20.8071 21.1871 20.6667 20.8335 20.6667ZM7.50016 22H8.8335C9.18712 22 9.52626 21.8595 9.7763 21.6095C10.0264 21.3594 10.1668 21.0203 10.1668 20.6667C10.1668 20.313 10.0264 19.9739 9.7763 19.7238C9.52626 19.4738 9.18712 19.3333 8.8335 19.3333H7.50016C7.14654 19.3333 6.8074 19.4738 6.55735 19.7238C6.30731 19.9739 6.16683 20.313 6.16683 20.6667C6.16683 21.0203 6.30731 21.3594 6.55735 21.6095C6.8074 21.8595 7.14654 22 7.50016 22Z" fill="white"/>
</svg>
