<svg width="30" height="10" viewBox="0 0 30 10" fill="none" xmlns="http://www.w3.org/2000/svg">
<path d="M27.5289 0.573746H25.734C25.1913 0.573746 24.7739 0.740714 24.5234 1.28336L21.1006 9.08915H23.5216C23.5216 9.08915 23.9391 8.0456 24.0225 7.79515C24.273 7.79515 26.6523 7.79515 26.9862 7.79515C27.0697 8.08734 27.2784 9.04741 27.2784 9.04741H29.449L27.5289 0.573746ZM24.6904 6.04197C24.8991 5.54107 25.6087 3.66267 25.6087 3.66267C25.6087 3.70441 25.8174 3.16176 25.9009 2.86957L26.0679 3.62093C26.0679 3.62093 26.5271 5.66629 26.6105 6.08372H24.6904V6.04197Z" fill="#3362AB"/>
<path d="M21.2669 6.29218C21.2669 8.04535 19.6807 9.21413 17.2179 9.21413C16.1743 9.21413 15.1725 9.00542 14.6299 8.75497L14.9638 6.83483L15.256 6.96005C16.0074 7.29399 16.5083 7.41922 17.4266 7.41922C18.0945 7.41922 18.8041 7.16876 18.8041 6.58437C18.8041 6.20869 18.5119 5.95824 17.5936 5.54082C16.717 5.1234 15.5482 4.45552 15.5482 3.245C15.5482 1.57531 17.1762 0.448273 19.472 0.448273C20.3486 0.448273 21.0999 0.615241 21.5591 0.823952L21.2251 2.66061L21.0582 2.49364C20.6408 2.32667 20.0981 2.1597 19.305 2.1597C18.4284 2.20144 18.011 2.57712 18.011 2.91106C18.011 3.28674 18.5119 3.57894 19.305 3.95462C20.6408 4.58075 21.2669 5.29037 21.2669 6.29218Z" fill="#3362AB"/>
<path d="M0.896484 0.657066L0.938227 0.490097H4.52805C5.02896 0.490097 5.40464 0.657066 5.52986 1.19971L6.32297 4.95651C5.52986 2.95289 3.69321 1.32494 0.896484 0.657066Z" fill="#F9B50B"/>
<path d="M11.3738 0.573664L7.74228 9.04733H5.27949L3.19238 1.95116C4.6951 2.91123 5.94737 4.41394 6.40653 5.4575L6.65698 6.33408L8.91106 0.531921H11.3738V0.573664Z" fill="#3362AB"/>
<path d="M12.334 0.531921H14.6298L13.1689 9.04733H10.873L12.334 0.531921Z" fill="#3362AB"/>
</svg>
