<svg width="49" height="31" viewBox="0 0 49 31" fill="none" xmlns="http://www.w3.org/2000/svg">
<path fill-rule="evenodd" clip-rule="evenodd" d="M15.2468 23.9293C15.5523 23.7706 16.0716 23.5623 16.6218 23.5623C17.8846 23.5623 18.5672 24.415 18.5672 26.0017C18.5672 27.8553 17.6508 28.7576 16.1738 28.7576C15.6337 28.7576 14.7986 28.5891 14.1873 28.2714V21.3515L15.2468 21.1035V23.9293ZM15.2367 27.9048C15.5624 28.0436 15.9191 28.0633 16.1738 28.0633C16.9276 28.0633 17.4979 27.6074 17.4979 26.0017C17.4979 24.7422 17.0294 24.3357 16.347 24.3357C15.9393 24.3357 15.6442 24.4448 15.2367 24.6629V27.9048ZM4.38814 23.691H4.45948L5.84443 28.6386H6.94439L8.59469 21.6089H7.40285L6.36396 26.8539H6.29298L4.87687 21.6089H3.97038L2.64632 26.8539H2.57499L1.43413 21.6089H0.293457L1.94358 28.6386H3.04336L4.38814 23.691ZM13.1082 28.3012V27.5477C12.548 27.8749 12.0389 28.0633 11.4889 28.0633C10.4397 28.0633 9.94074 27.5376 9.94074 26.348H13.261V25.9814C13.261 24.3655 12.4766 23.5622 11.2037 23.5622C9.67593 23.5622 8.89158 24.6529 8.89158 26.1597C8.89158 27.7264 9.59433 28.7576 11.3053 28.7576C12.0389 28.7576 12.6499 28.5593 13.1082 28.3012ZM12.2933 25.684H9.96138C10.0731 24.6927 10.5515 24.2266 11.1732 24.2266C11.7232 24.2266 12.2429 24.6427 12.2933 25.684ZM23.2527 27.1513H23.2016L20.92 21.6089H19.6877V28.6386H20.6044V23.6615H20.6959L22.7741 28.6386H23.4257L25.5036 23.5424H25.5955V28.6386H26.6955V21.6089H25.4323L23.2527 27.1513ZM27.816 26.1597C27.816 24.4246 28.7939 23.5622 30.1383 23.5622C31.4829 23.5622 32.4609 24.4246 32.4609 26.1597C32.4609 27.8553 31.5339 28.7576 30.1383 28.7576C28.7427 28.7576 27.816 27.8553 27.816 26.1597ZM31.3911 26.1597C31.3911 24.8214 30.8307 24.2565 30.1382 24.2565C29.4659 24.2565 28.8853 24.8214 28.8853 26.1597C28.8853 27.5185 29.4153 28.0633 30.1382 28.0633C30.8613 28.0633 31.3911 27.5185 31.3911 26.1597ZM36.025 23.5622C34.8542 23.5622 33.8863 24.0281 33.428 24.2959V28.6386H34.4875V24.7124C34.8031 24.5342 35.3226 24.3553 35.7303 24.3553C36.2496 24.3553 36.6465 24.4942 36.6465 25.2775V28.6386H37.7057V25.0492C37.7057 24.0281 37.2478 23.5622 36.025 23.5622ZM42.8696 27.5477V28.3012C42.4115 28.5593 41.8006 28.7576 41.0669 28.7576C39.3561 28.7576 38.6532 27.7264 38.6532 26.1597C38.6532 24.6529 39.4377 23.5622 40.9653 23.5622C42.2388 23.5622 43.0233 24.3655 43.0233 25.9814V26.348H39.7027C39.7027 27.5376 40.2017 28.0633 41.2507 28.0633C41.8006 28.0633 42.3099 27.8749 42.8696 27.5477ZM39.723 25.684H42.0553C42.0047 24.6427 41.4848 24.2266 40.9348 24.2266C40.3133 24.2266 39.8352 24.6927 39.723 25.684ZM48.0752 23.7308H46.9853L45.8237 27.3791H45.763L44.4593 23.7308H43.3388L45.2945 28.688C45.0496 29.4215 44.6223 29.9574 43.9297 29.9574V30.7699C45.1004 30.7699 45.7219 30.0565 46.2314 28.688L48.0752 23.7308Z" fill="#0068A3"/>
<path fill-rule="evenodd" clip-rule="evenodd" d="M23.5013 0.827637C24.903 0.827637 26.2305 1.14537 27.4127 1.70946C27.5985 1.79521 27.7837 1.88955 27.9694 1.9937L27.1476 2.70965L25.9129 1.46696L23.829 3.2762L22.5912 1.96126L18.7093 5.36723L21.1979 8.03691L20.2199 8.8742L22.6712 11.5479L21.6989 12.3833L25.2017 16.1783L27.2809 14.3151L29.0785 16.3118C28.721 16.5823 28.3315 16.837 27.9024 17.0723C26.6025 17.7938 25.1 18.2069 23.5013 18.2069C18.5844 18.2069 14.5742 14.303 14.5742 9.51756C14.5742 4.73107 18.5844 0.827637 23.5013 0.827637ZM21.8743 8.96819L23.9971 7.10739L25.9086 9.17422L23.786 11.0343L21.8743 8.96819ZM25.5069 10.6784L23.3839 12.5386L25.2958 14.6055L27.4186 12.7447L25.5069 10.6784ZM20.3554 5.43948L22.4782 3.57921L24.3892 5.64551L22.2664 7.50578L20.3554 5.43948ZM25.8431 3.04299L24.251 4.43806L25.6844 5.98832L27.2765 4.59272L25.8431 3.04299ZM27.0797 10.8293L28.6724 9.43374L30.1058 10.9838L28.5137 12.3791L27.0797 10.8293ZM30.0721 12.5639L28.4804 13.9597L29.9138 15.5089L31.5059 14.1136L30.0721 12.5639ZM29.1215 6.78528L30.1829 5.85505L31.1384 6.88821L30.0775 7.81825L29.1215 6.78528ZM28.8269 2.7854L27.7655 3.71545L28.721 4.7486L29.7826 3.81856L28.8269 2.7854ZM30.4785 9.85493L31.5399 8.9247L32.4955 9.95768L31.4341 10.8879L30.4785 9.85493ZM27.3103 6.15893L25.7184 7.5547L27.1522 9.10391L28.7437 7.70866L27.3103 6.15893Z" fill="#0068A3"/>
</svg>
