<svg width="49" height="18" viewBox="0 0 49 18" fill="none" xmlns="http://www.w3.org/2000/svg">
<path d="M22.6484 14.1162H24.5315V10.6071H26.5211C28.9218 10.6071 30.211 9.16691 30.211 7.16895C30.211 5.1862 28.937 3.73083 26.5464 3.73083H22.6484V14.1162ZM24.5315 9.06042V5.30284H26.2571C27.6681 5.30284 28.2924 6.06348 28.2924 7.16895C28.2924 8.27442 27.6681 9.06042 26.2673 9.06042H24.5315Z" fill="#B3B3B3"/>
<path d="M32.0229 14.1162L32.8807 11.5553H36.7888L37.6517 14.1162H39.6616L35.997 3.73083H33.6725L30.013 14.1162H32.0229ZM33.3882 10.0442L34.7942 5.86064H34.8754L36.2813 10.0442H33.3882Z" fill="#B3B3B3"/>
<path d="M39.2593 3.73083L43.0406 10.242V14.1162H44.9185V10.242L48.6998 3.73083H46.5732L44.0303 8.32513H43.9288L41.386 3.73083H39.2593Z" fill="#B3B3B3"/>
<ellipse cx="9.1386" cy="8.87957" rx="8.84514" ry="8.84514" fill="#FC3F1D"/>
<path d="M12.5816 14.0783H10.7593V5.04499H9.9455C8.45551 5.04499 7.67614 5.79108 7.67614 6.90446C7.67614 8.16706 8.21482 8.75245 9.32658 9.49853L10.2435 10.1183L7.60737 14.0783H5.64746L8.01998 10.543C6.65607 9.5674 5.88815 8.61471 5.88815 7.00776C5.88815 4.99908 7.28645 3.63318 9.93404 3.63318H12.5702V14.0783H12.5816Z" fill="white"/>
</svg>
