<svg width="21" height="21" viewBox="0 0 21 21" fill="none" xmlns="http://www.w3.org/2000/svg">
<path d="M9.93552 5.07817C10.2861 5.02443 10.6403 4.99769 10.995 4.99821C14.1734 4.99821 17.1619 7.28707 18.9011 10.9952C18.6351 11.5596 18.3347 12.107 18.0015 12.6344C17.8958 12.7982 17.8402 12.9892 17.8416 13.1842C17.8438 13.4023 17.9174 13.6137 18.051 13.7861C18.1846 13.9586 18.3709 14.0826 18.5816 14.1392C18.7923 14.1958 19.0157 14.182 19.2177 14.0998C19.4198 14.0176 19.5894 13.8715 19.7007 13.6839C20.1664 12.9522 20.5709 12.1833 20.9101 11.385C20.9637 11.2603 20.9914 11.126 20.9914 10.9902C20.9914 10.8545 20.9637 10.7202 20.9101 10.5954C18.8911 5.90776 15.093 2.9992 10.995 2.9992C10.5259 2.99683 10.0575 3.03698 9.59569 3.11914C9.46443 3.14145 9.33885 3.1894 9.22613 3.26024C9.1134 3.33109 9.01573 3.42344 8.9387 3.53203C8.86166 3.64062 8.80677 3.76332 8.77716 3.89313C8.74754 4.02293 8.74378 4.1573 8.7661 4.28856C8.78841 4.41981 8.83636 4.54539 8.90721 4.65812C8.97805 4.77084 9.07041 4.86851 9.179 4.94555C9.28759 5.02258 9.41029 5.07747 9.54009 5.10709C9.6699 5.1367 9.80426 5.14046 9.93552 5.11815V5.07817ZM2.70909 1.29004C2.6159 1.19685 2.50527 1.12292 2.3835 1.07249C2.26174 1.02205 2.13124 0.996094 1.99944 0.996094C1.86765 0.996094 1.73715 1.02205 1.61539 1.07249C1.49362 1.12292 1.38299 1.19685 1.2898 1.29004C1.10159 1.47825 0.99585 1.73352 0.99585 1.99969C0.99585 2.26586 1.10159 2.52113 1.2898 2.70934L4.38826 5.79781C2.97454 7.15867 1.84938 8.79032 1.0799 10.5954C1.02486 10.7215 0.996456 10.8577 0.996456 10.9952C0.996456 11.1328 1.02486 11.2689 1.0799 11.395C3.0989 16.0827 6.89702 18.9913 10.995 18.9913C12.7912 18.9789 14.545 18.4441 16.0425 17.452L19.2809 20.7004C19.3738 20.7941 19.4844 20.8685 19.6062 20.9192C19.728 20.97 19.8586 20.9961 19.9905 20.9961C20.1225 20.9961 20.2531 20.97 20.3749 20.9192C20.4967 20.8685 20.6073 20.7941 20.7002 20.7004C20.7939 20.6075 20.8682 20.497 20.919 20.3752C20.9697 20.2534 20.9958 20.1227 20.9958 19.9908C20.9958 19.8588 20.9697 19.7282 20.919 19.6064C20.8682 19.4846 20.7939 19.3741 20.7002 19.2811L2.70909 1.29004ZM9.06595 10.4755L11.5147 12.9243C11.3458 12.9727 11.1707 12.9963 10.995 12.9943C10.4648 12.9943 9.95637 12.7836 9.58148 12.4088C9.20659 12.0339 8.99599 11.5254 8.99599 10.9952C8.99394 10.8195 9.01751 10.6444 9.06595 10.4755ZM10.995 16.9923C7.81657 16.9923 4.82805 14.7034 3.0989 10.9952C3.74467 9.56969 4.6612 8.28316 5.79757 7.20711L7.56669 8.99623C7.15114 9.75465 6.99272 10.6274 7.11517 11.4835C7.23763 12.3395 7.63437 13.1328 8.24588 13.7444C8.85739 14.3559 9.65069 14.7526 10.5068 14.8751C11.3629 14.9975 12.2356 14.8391 12.994 14.4235L14.5832 15.9928C13.4949 16.6333 12.2578 16.9779 10.995 16.9923Z" fill="#8F8F8F"/>
</svg>
