<svg width="37" height="29" viewBox="0 0 37 29" fill="none" xmlns="http://www.w3.org/2000/svg">
<path fill-rule="evenodd" clip-rule="evenodd" d="M10.806 25.0975V26.5744V28.0512H10.1595V27.6926C9.9544 27.9586 9.64324 28.1255 9.2203 28.1255C8.38651 28.1255 7.73287 27.4769 7.73287 26.5744C7.73287 25.6725 8.38651 25.0232 9.2203 25.0232C9.64324 25.0232 9.9544 25.1901 10.1595 25.4561V25.0975H10.806ZM9.30075 25.6287C8.74109 25.6287 8.39861 26.0552 8.39861 26.5743C8.39861 27.0935 8.74109 27.52 9.30075 27.52C9.83548 27.52 10.1965 27.1119 10.1965 26.5743C10.1965 26.0368 9.83548 25.6287 9.30075 25.6287ZM32.6539 26.5743C32.6539 26.0552 32.9963 25.6287 33.556 25.6287C34.0914 25.6287 34.4517 26.0368 34.4517 26.5743C34.4517 27.1119 34.0914 27.52 33.556 27.52C32.9963 27.52 32.6539 27.0935 32.6539 26.5743ZM35.0619 23.9113V26.5744V28.0512H34.4147V27.6926C34.2096 27.9586 33.8985 28.1255 33.4755 28.1255C32.6418 28.1255 31.9881 27.4769 31.9881 26.5744C31.9881 25.6725 32.6418 25.0232 33.4755 25.0232C33.8985 25.0232 34.2096 25.1901 34.4147 25.4561V23.9113H35.0619ZM18.8313 25.5983C19.2478 25.5983 19.5155 25.8578 19.5839 26.3148H18.0409C18.11 25.8883 18.3706 25.5983 18.8313 25.5983ZM17.363 26.5744C17.363 25.6534 17.9725 25.0232 18.8441 25.0232C19.6771 25.0232 20.2496 25.6534 20.256 26.5744C20.256 26.6606 20.2496 26.7413 20.2432 26.8212H18.0352C18.1285 27.3531 18.508 27.5448 18.9245 27.5448C19.2229 27.5448 19.5404 27.433 19.7896 27.2357L20.1065 27.7117C19.7455 28.0144 19.3354 28.1255 18.8875 28.1255C17.9975 28.1255 17.363 27.5137 17.363 26.5744ZM26.6508 26.5743C26.6508 26.0552 26.9932 25.6287 27.5529 25.6287C28.0876 25.6287 28.4486 26.0368 28.4486 26.5743C28.4486 27.1119 28.0876 27.52 27.5529 27.52C26.9932 27.52 26.6508 27.0935 26.6508 26.5743ZM29.0581 25.0975V26.5744V28.0512H28.4116V27.6926C28.2058 27.9586 27.8954 28.1255 27.4724 28.1255C26.6387 28.1255 25.985 27.4769 25.985 26.5744C25.985 25.6725 26.6387 25.0232 27.4724 25.0232C27.8954 25.0232 28.2058 25.1901 28.4116 25.4561V25.0975H29.0581ZM22.9994 26.5744C22.9994 27.4705 23.6274 28.1255 24.5858 28.1255C25.0337 28.1255 25.332 28.0265 25.6553 27.7732L25.3449 27.2541C25.102 27.4274 24.8471 27.52 24.5666 27.52C24.0504 27.5137 23.6709 27.143 23.6709 26.5744C23.6709 26.0057 24.0504 25.635 24.5666 25.6287C24.8471 25.6287 25.102 25.7213 25.3449 25.8946L25.6553 25.3755C25.332 25.1222 25.0337 25.0232 24.5858 25.0232C23.6274 25.0232 22.9994 25.6782 22.9994 26.5744ZM30.5511 25.4561C30.7192 25.1965 30.962 25.0232 31.3351 25.0232C31.4661 25.0232 31.6526 25.048 31.7958 25.1038L31.5964 25.7093C31.4597 25.6534 31.323 25.635 31.192 25.635C30.769 25.635 30.5575 25.9066 30.5575 26.3954V28.0512H29.9103V25.0975H30.5511V25.4561ZM14.0036 25.3323C13.6925 25.1286 13.2638 25.0232 12.7911 25.0232C12.0377 25.0232 11.5528 25.3818 11.5528 25.9689C11.5528 26.4506 11.9138 26.7476 12.5789 26.8403L12.8843 26.8834C13.2389 26.933 13.4063 27.0256 13.4063 27.1925C13.4063 27.421 13.1699 27.5511 12.7284 27.5511C12.2805 27.5511 11.9573 27.409 11.7394 27.2421L11.4346 27.7421C11.7892 28.0017 12.2371 28.1255 12.722 28.1255C13.5807 28.1255 14.0784 27.7237 14.0784 27.1614C14.0784 26.6423 13.6868 26.3706 13.0396 26.278L12.7348 26.2341C12.455 26.1974 12.2307 26.1422 12.2307 25.9441C12.2307 25.7277 12.4422 25.5983 12.7968 25.5983C13.1763 25.5983 13.5437 25.7404 13.7238 25.8515L14.0036 25.3323ZM21.5626 25.4561C21.7299 25.1965 21.9727 25.0232 22.3458 25.0232C22.4768 25.0232 22.6634 25.048 22.8065 25.1038L22.6071 25.7093C22.4704 25.6534 22.3337 25.635 22.2027 25.635C21.7798 25.635 21.5683 25.9066 21.5683 26.3954V28.0512H20.9218V25.0975H21.5626V25.4561ZM16.8282 25.0975H15.7708V24.2013H15.1172V25.0975H14.5141V25.6846H15.1172V27.032C15.1172 27.7174 15.3849 28.1255 16.1496 28.1255C16.4302 28.1255 16.7534 28.0392 16.9585 27.897L16.772 27.3467C16.579 27.4578 16.3675 27.5137 16.1995 27.5137C15.8762 27.5137 15.7708 27.3156 15.7708 27.0193V25.6846H16.8282V25.0975ZM7.16107 26.1974V28.0512H6.50743V26.4074C6.50743 25.9066 6.29596 25.6287 5.8545 25.6287C5.42515 25.6287 5.12681 25.901 5.12681 26.4138V28.0512H4.47317V26.4074C4.47317 25.9066 4.256 25.6287 3.82665 25.6287C3.38448 25.6287 3.09824 25.901 3.09824 26.4138V28.0512H2.44531L2.44531 25.0975H3.09255V25.4617C3.33535 25.1159 3.64579 25.0232 3.96336 25.0232C4.41763 25.0232 4.74089 25.2213 4.94595 25.5487C5.22008 25.1343 5.6117 25.0169 5.99121 25.0232C6.71321 25.0296 7.16107 25.4992 7.16107 26.1974Z" fill="#B3B3B3"/>
<path d="M23.5885 20.0785H13.7896V2.58521H23.5885V20.0785Z" fill="#FF5F00"/>
<path d="M14.4112 11.3322C14.4112 7.78362 16.0837 4.62264 18.6883 2.58558C16.7836 1.09598 14.3798 0.20689 11.7674 0.20689C5.58272 0.20689 0.569336 5.18778 0.569336 11.3322C0.569336 17.4766 5.58272 22.4575 11.7674 22.4575C14.3798 22.4575 16.7836 21.5684 18.6883 20.0788C16.0837 18.0418 14.4112 14.8808 14.4112 11.3322Z" fill="#EB001B"/>
<path d="M36.8082 11.3322C36.8082 17.4766 31.7948 22.4575 25.6101 22.4575C22.9977 22.4575 20.5939 21.5684 18.6885 20.0788C21.2938 18.0418 22.9663 14.8808 22.9663 11.3322C22.9663 7.78362 21.2938 4.62264 18.6885 2.58558C20.5939 1.09598 22.9977 0.20689 25.6101 0.20689C31.7948 0.20689 36.8082 5.18778 36.8082 11.3322Z" fill="#F79E1B"/>
</svg>
