<svg width="49" height="16" viewBox="0 0 49 16" fill="none" xmlns="http://www.w3.org/2000/svg">
<path d="M44.8178 0.622925H41.8263C40.9219 0.622925 40.2262 0.901206 39.8088 1.80562L34.104 14.8153H38.1391C38.1391 14.8153 38.8348 13.076 38.9739 12.6586C39.3913 12.6586 43.3568 12.6586 43.9134 12.6586C44.0526 13.1456 44.4004 14.7457 44.4004 14.7457H48.0181L44.8178 0.622925ZM40.087 9.73664C40.4349 8.90179 41.6176 5.77113 41.6176 5.77113C41.6176 5.8407 41.9654 4.93628 42.1046 4.44929L42.3829 5.70156C42.3829 5.70156 43.1481 9.1105 43.2873 9.80621H40.087V9.73664Z" fill="#3362AB"/>
<path d="M34.382 10.1537C34.382 13.0756 31.7383 15.0236 27.6337 15.0236C25.8944 15.0236 24.2247 14.6757 23.3203 14.2583L23.8769 11.0581L24.3639 11.2668C25.6161 11.8233 26.451 12.0321 27.9815 12.0321C29.0946 12.0321 30.2773 11.6146 30.2773 10.6407C30.2773 10.0145 29.7903 9.5971 28.2598 8.90139C26.7988 8.20569 24.8509 7.09257 24.8509 5.07503C24.8509 2.29222 27.5641 0.413818 31.3905 0.413818C32.8514 0.413818 34.1037 0.6921 34.869 1.03995L34.3124 4.10104L34.0341 3.82276C33.3384 3.54448 32.434 3.2662 31.1122 3.2662C29.6512 3.33577 28.9555 3.9619 28.9555 4.51847C28.9555 5.1446 29.7903 5.63159 31.1122 6.25772C33.3384 7.30128 34.382 8.48397 34.382 10.1537Z" fill="#3362AB"/>
<path d="M0.431152 0.761802L0.500723 0.483521H6.48377C7.31861 0.483521 7.94474 0.761802 8.15345 1.66622L9.47529 7.92754C8.15345 4.58817 5.09236 1.87493 0.431152 0.761802Z" fill="#F9B50B"/>
<path d="M17.8931 0.622793L11.8405 14.7456H7.73584L4.25732 2.91861C6.76185 4.51873 8.84896 7.02326 9.61424 8.76252L10.0317 10.2235L13.7885 0.553223H17.8931V0.622793Z" fill="#3362AB"/>
<path d="M19.4936 0.553223H23.3199L20.885 14.7456H17.0586L19.4936 0.553223Z" fill="#3362AB"/>
</svg>
