<svg width="278" height="259" viewBox="0 0 278 259" fill="none" xmlns="http://www.w3.org/2000/svg">
<g filter="url(#filter0_d_34_10066)">
<path d="M43.5289 229.35C96.2282 256.883 181.681 256.883 234.392 229.35C287.103 201.816 287.097 157.175 234.392 129.642C181.686 102.108 96.24 102.108 43.5289 129.642C-9.18219 157.175 -9.17041 201.84 43.5289 229.35Z" fill="#2F3042"/>
<path d="M106.86 165.137V106.215H75.188V165.144C75.188 167.484 76.7478 169.824 79.8674 171.602C86.0521 175.174 96.0817 175.174 102.266 171.602C105.386 169.816 106.899 167.484 106.907 165.144L106.86 165.137Z" fill="#252736"/>
<path d="M79.8284 113.078C73.636 109.506 73.636 103.719 79.8284 100.139C86.0209 96.5594 96.0427 96.5672 102.227 100.139C108.412 103.711 108.412 109.498 102.227 113.078C96.0427 116.658 86.0131 116.642 79.8284 113.078Z" fill="#2C2E40"/>
<path d="M144.88 187.091V144.196H113.201V187.091C113.201 189.431 114.76 191.77 117.88 193.549C124.065 197.121 134.094 197.121 140.279 193.549C143.399 191.77 144.919 189.431 144.919 187.091H144.88Z" fill="#252736"/>
<path d="M117.841 151.067C111.656 147.495 111.656 141.708 117.841 138.128C124.026 134.549 134.055 134.556 140.24 138.128C146.424 141.7 146.432 147.487 140.24 151.067C134.047 154.647 124.018 154.67 117.841 151.067Z" fill="#2C2E40"/>
<path d="M182.901 209.038V175.728H151.221V209.045C151.221 211.385 152.781 213.725 155.901 215.511C162.085 219.083 172.115 219.083 178.3 215.511C181.419 213.725 182.932 211.385 182.94 209.045L182.901 209.038Z" fill="#252736"/>
<path d="M167.061 185.258C175.809 185.258 182.901 181.162 182.901 176.11C182.901 171.057 175.809 166.962 167.061 166.962C158.313 166.962 151.221 171.057 151.221 176.11C151.221 181.162 158.313 185.258 167.061 185.258Z" fill="#2C2E40"/>
<path d="M73.1602 185.913L65.6809 181.6L69.8222 176.235C70.3525 175.548 70.103 175.174 69.2685 175.385L59.348 177.943L51.8687 173.622C51.2405 173.303 50.5457 173.136 49.841 173.136C49.1363 173.136 48.4415 173.303 47.8132 173.622L36.0288 180.407C34.9058 181.055 34.9058 182.1 36.0288 182.747L57.3203 195.038C57.9486 195.357 58.6433 195.524 59.348 195.524C60.0528 195.524 60.7475 195.357 61.3758 195.038L73.1602 188.23C74.2755 187.606 74.2755 186.561 73.1602 185.913Z" fill="#F28E36"/>
<path d="M61.1965 183.269C61.3184 183.257 61.4412 183.257 61.5631 183.269C61.6842 183.285 61.801 183.324 61.9062 183.386L62.9747 184.003C63.0468 184.038 63.1027 184.099 63.1307 184.174C63.1307 184.237 63.1307 184.291 63.0215 184.33C62.996 184.337 62.969 184.337 62.9435 184.33C62.905 184.339 62.865 184.339 62.8265 184.33L48.0083 185.5H47.5871C47.4656 185.482 47.3489 185.439 47.244 185.375L46.1755 184.759C46.1034 184.724 46.0475 184.663 46.0195 184.587C46.0195 184.525 46.0195 184.47 46.1287 184.432C46.1542 184.425 46.1812 184.425 46.2067 184.432H46.3237L61.1965 183.269ZM56.4235 182.279C56.1065 182.491 55.7756 182.681 55.433 182.848C55.1564 182.989 54.8664 183.101 54.5673 183.184C54.2537 183.263 53.9314 183.302 53.608 183.301C52.8861 183.302 52.1773 183.108 51.5569 182.739C51.2608 182.594 50.9959 182.393 50.777 182.146C50.6348 181.984 50.5547 181.777 50.5508 181.561C50.5537 181.358 50.6282 181.162 50.7614 181.008C50.9165 180.806 51.1068 180.635 51.3229 180.501C51.4708 180.394 51.6244 180.295 51.783 180.204C51.9312 180.119 52.1106 180.025 52.3056 179.931C52.5864 179.79 52.8819 179.68 53.1869 179.604C53.8347 179.443 54.5122 179.443 55.16 179.604C55.5203 179.702 55.8664 179.846 56.1895 180.033C56.4709 180.18 56.7201 180.381 56.9226 180.626C57.0664 180.787 57.1492 180.994 57.1566 181.21C57.1466 181.413 57.0729 181.606 56.946 181.764C56.8032 181.965 56.6263 182.139 56.4235 182.279ZM57.8975 188.378C57.5955 188.603 57.2775 188.807 56.946 188.986C56.6674 189.126 56.3746 189.236 56.0725 189.314C55.7601 189.4 55.4373 189.442 55.1132 189.438C54.768 189.437 54.4244 189.39 54.0916 189.298C53.7304 189.207 53.3839 189.065 53.0621 188.877C52.7838 188.725 52.5354 188.525 52.329 188.284C52.1851 188.12 52.1049 187.91 52.1028 187.692C52.109 187.49 52.1801 187.296 52.3056 187.138C52.4644 186.939 52.6571 186.77 52.8749 186.639C53.0198 186.527 53.1737 186.428 53.3351 186.342C53.5032 186.24 53.6777 186.149 53.8576 186.069C54.1357 185.928 54.4287 185.818 54.7311 185.742C55.0452 185.665 55.367 185.623 55.6904 185.617C56.4096 185.617 57.1156 185.811 57.7337 186.178C58.0312 186.321 58.2965 186.523 58.5136 186.771C58.6513 186.929 58.7272 187.131 58.7272 187.341C58.7272 187.55 58.6513 187.752 58.5136 187.91C58.3363 188.1 58.1279 188.258 57.8975 188.378ZM52.9295 181.359C52.7744 181.446 52.6474 181.576 52.5629 181.733C52.5629 181.842 52.563 181.951 52.7891 182.061C52.9577 182.163 53.1542 182.209 53.3507 182.193C53.5772 182.157 53.7961 182.084 53.998 181.975C54.2935 181.833 54.5778 181.669 54.8481 181.483C55.0068 181.398 55.137 181.268 55.2224 181.109C55.2224 181 55.1834 180.891 54.9963 180.782C54.8254 180.678 54.6253 180.634 54.4269 180.657C54.2029 180.688 53.9864 180.76 53.7874 180.867C53.4895 180.997 53.2026 181.151 52.9295 181.327V181.359ZM54.4113 187.458C54.2526 187.543 54.1224 187.673 54.037 187.832C54.037 187.933 54.037 188.042 54.2631 188.152C54.4318 188.261 54.6331 188.307 54.8325 188.284C55.0556 188.249 55.2716 188.178 55.472 188.074C55.771 187.934 56.0579 187.769 56.3299 187.582C56.4869 187.497 56.6146 187.367 56.6965 187.208C56.6965 187.099 56.6965 186.99 56.4703 186.88C56.3017 186.778 56.1052 186.732 55.9088 186.748C55.6845 186.783 55.468 186.857 55.2692 186.966C54.9713 187.096 54.6844 187.25 54.4113 187.426V187.458Z" fill="#F5F5F5"/>
<path d="M114.355 209.685L106.86 205.364L111.001 200.006C111.524 199.32 111.274 198.938 110.44 199.156L100.519 201.706L93.0402 197.394C92.4133 197.074 91.7198 196.908 91.0163 196.908C90.3128 196.908 89.6194 197.074 88.9924 197.394L77.2237 204.194C76.1084 204.842 76.1084 205.895 77.2237 206.534L98.5151 218.833C99.1445 219.149 99.8388 219.313 100.543 219.313C101.247 219.313 101.941 219.149 102.571 218.833L114.355 212.025C115.478 211.377 115.478 210.332 114.355 209.685Z" fill="#F28E36"/>
<path d="M102.391 207.041H102.765C102.887 207.06 103.003 207.103 103.108 207.166L104.169 207.782C104.263 207.837 104.317 207.891 104.325 207.954C104.333 208.016 104.325 208.063 104.224 208.109C104.198 208.115 104.171 208.115 104.146 208.109H104.029L89.2105 209.279C89.086 209.291 88.9606 209.291 88.8361 209.279C88.7143 209.262 88.5974 209.22 88.493 209.155L87.4323 208.546C87.3387 208.492 87.2841 208.429 87.2763 208.375C87.2738 208.34 87.2822 208.306 87.3004 208.276C87.3186 208.247 87.3457 208.224 87.3777 208.211H87.4557H87.5727L102.391 207.041ZM97.6179 206.051C97.3046 206.264 96.9762 206.454 96.6352 206.62C96.3566 206.76 96.0637 206.87 95.7617 206.947C95.4492 207.033 95.1264 207.075 94.8024 207.072C94.4572 207.071 94.1136 207.024 93.7808 206.932C93.4196 206.84 93.0731 206.698 92.7513 206.511C92.4709 206.359 92.2199 206.158 92.0104 205.918C91.869 205.76 91.7907 205.556 91.7907 205.345C91.7907 205.133 91.869 204.929 92.0104 204.771C92.1681 204.575 92.3579 204.406 92.5719 204.272C92.7192 204.164 92.8728 204.065 93.032 203.976C93.2038 203.876 93.3808 203.784 93.5624 203.703C93.8405 203.562 94.1334 203.452 94.4359 203.375C94.9405 203.247 95.4655 203.219 95.9808 203.294C96.496 203.369 96.9914 203.545 97.4385 203.812C97.7206 203.961 97.972 204.162 98.1794 204.405C98.3227 204.566 98.4031 204.774 98.4056 204.99C98.3995 205.193 98.3254 205.388 98.195 205.544C98.0352 205.746 97.8396 205.918 97.6179 206.051ZM99.0997 212.149C98.783 212.362 98.452 212.552 98.1092 212.719C97.8339 212.86 97.5435 212.97 97.2435 213.046C96.93 213.125 96.6077 213.165 96.2843 213.163C95.5624 213.165 94.8535 212.971 94.2331 212.602C93.9516 212.455 93.7002 212.257 93.4922 212.017C93.3483 211.853 93.2681 211.642 93.266 211.424C93.275 211.222 93.3488 211.028 93.4766 210.87C93.6339 210.671 93.8237 210.5 94.0381 210.363C94.1941 210.254 94.3501 210.161 94.4983 210.067C94.6464 209.973 94.8258 209.888 95.0208 209.794C95.3016 209.653 95.5971 209.543 95.9021 209.467C96.2171 209.395 96.5385 209.356 96.8614 209.35C97.2037 209.348 97.5447 209.393 97.8753 209.482C98.2372 209.575 98.5839 209.719 98.9047 209.911C99.1868 210.06 99.4382 210.261 99.6457 210.504C99.7865 210.66 99.8645 210.863 99.8645 211.073C99.8645 211.283 99.7865 211.486 99.6457 211.642C99.4931 211.841 99.3086 212.012 99.0997 212.149ZM94.1317 205.13C93.9729 205.216 93.8428 205.346 93.7574 205.505C93.7574 205.606 93.7964 205.715 93.9835 205.824C94.1522 205.933 94.3535 205.98 94.5529 205.957C94.7757 205.92 94.9915 205.849 95.1924 205.746C95.4931 205.607 95.7803 205.44 96.0503 205.247C96.2062 205.164 96.3338 205.037 96.4168 204.881C96.4168 204.771 96.3779 204.662 96.1907 204.553C96.0237 204.447 95.8259 204.4 95.6291 204.421C95.4023 204.455 95.1833 204.529 94.9818 204.639C94.6864 204.769 94.4021 204.923 94.1317 205.099V205.13ZM95.6057 211.229C95.4532 211.317 95.3267 211.443 95.2392 211.596C95.2392 211.705 95.2782 211.814 95.4654 211.923C95.6324 212.029 95.8301 212.076 96.0269 212.056C96.2525 212.021 96.4711 211.95 96.6742 211.845C96.9693 211.7 97.2534 211.533 97.5243 211.346C97.6804 211.261 97.81 211.134 97.8987 210.98C97.9377 210.87 97.8987 210.761 97.6725 210.652C97.5024 210.547 97.3023 210.5 97.1032 210.519C96.8803 210.556 96.6645 210.627 96.4636 210.73C96.1678 210.867 95.8812 211.023 95.6057 211.198V211.229Z" fill="#F5F5F5"/>
<path d="M155.518 233.441L148.039 229.128L152.188 223.754C152.711 223.076 152.461 222.694 151.627 222.912L141.706 225.462L134.227 221.15C133.599 220.83 132.904 220.664 132.199 220.664C131.494 220.664 130.8 220.83 130.171 221.15L118.387 227.982C117.272 228.629 117.272 229.682 118.387 230.321L139.678 242.62C140.308 242.936 141.002 243.1 141.706 243.1C142.41 243.1 143.105 242.936 143.734 242.62L155.518 235.781C156.641 235.157 156.641 234.112 155.518 233.441Z" fill="#F28E36"/>
<path d="M143.555 230.82H143.921C144.043 230.839 144.159 230.881 144.264 230.945L145.333 231.561C145.426 231.616 145.481 231.67 145.489 231.733C145.496 231.795 145.489 231.842 145.387 231.889H145.309H145.192L130.374 233.059C130.252 233.071 130.129 233.071 130.008 233.059C129.885 233.043 129.768 233 129.664 232.934L128.604 232.326C128.51 232.271 128.456 232.209 128.448 232.154C128.445 232.12 128.454 232.085 128.472 232.056C128.49 232.026 128.517 232.003 128.549 231.99H128.627C128.666 231.981 128.706 231.981 128.744 231.99L143.555 230.82ZM138.781 229.83C138.467 230.045 138.135 230.235 137.791 230.399C137.516 230.541 137.225 230.65 136.925 230.727C136.613 230.812 136.29 230.854 135.966 230.852C135.618 230.85 135.272 230.803 134.937 230.711C134.578 230.62 134.234 230.478 133.915 230.29C133.634 230.138 133.384 229.938 133.174 229.697C133.03 229.533 132.95 229.323 132.948 229.105C132.957 228.902 133.031 228.708 133.158 228.551C133.318 228.353 133.507 228.182 133.72 228.044C133.876 227.935 134.032 227.841 134.18 227.755C134.328 227.67 134.508 227.576 134.703 227.475C135.276 227.194 135.905 227.042 136.543 227.03C137.262 227.032 137.967 227.226 138.587 227.592C138.869 227.741 139.12 227.942 139.327 228.184C139.468 228.347 139.548 228.554 139.554 228.769C139.544 228.971 139.47 229.165 139.343 229.323C139.188 229.524 138.998 229.696 138.781 229.83ZM140.256 235.929C139.94 236.139 139.612 236.329 139.273 236.498C138.997 236.638 138.707 236.748 138.407 236.826C137.755 236.992 137.071 236.992 136.418 236.826C136.059 236.731 135.715 236.587 135.397 236.397C135.099 236.254 134.834 236.052 134.617 235.804C134.472 235.643 134.392 235.435 134.391 235.219C134.395 235.017 134.466 234.822 134.593 234.665C134.756 234.468 134.948 234.297 135.163 234.158C135.311 234.051 135.464 233.952 135.623 233.862C135.771 233.776 135.95 233.683 136.145 233.589C136.715 233.296 137.346 233.144 137.986 233.144C138.328 233.143 138.669 233.188 139 233.277C139.359 233.372 139.703 233.516 140.022 233.706C140.319 233.849 140.584 234.05 140.801 234.299C140.946 234.459 141.026 234.668 141.028 234.884C141.023 235.086 140.952 235.28 140.825 235.437C140.665 235.633 140.472 235.799 140.256 235.929ZM135.288 228.91C135.132 228.997 135.005 229.127 134.921 229.284C134.921 229.385 134.96 229.495 135.147 229.604C135.315 229.709 135.512 229.755 135.709 229.736C135.934 229.701 136.153 229.63 136.356 229.526C136.656 229.384 136.943 229.217 137.214 229.027C137.37 228.944 137.497 228.816 137.58 228.66C137.619 228.551 137.58 228.442 137.354 228.332C137.184 228.227 136.984 228.18 136.785 228.2C136.561 228.236 136.345 228.31 136.145 228.418C135.848 228.55 135.562 228.704 135.288 228.878V228.91ZM136.769 235.008C136.615 235.096 136.486 235.223 136.395 235.375C136.395 235.484 136.395 235.593 136.629 235.703C136.796 235.809 136.994 235.855 137.19 235.835C137.414 235.8 137.63 235.729 137.83 235.625C138.128 235.479 138.414 235.312 138.688 235.125C138.844 235.04 138.974 234.913 139.062 234.759C139.104 234.65 139.026 234.541 138.828 234.431C138.661 234.325 138.464 234.279 138.267 234.299C138.044 234.334 137.828 234.405 137.627 234.509C137.33 234.652 137.043 234.817 136.769 235.001V235.008Z" fill="#F5F5F5"/>
<g opacity="0.3">
<path opacity="0.3" d="M220.324 138.894L220.192 57.8776C220.164 57.4087 220.027 56.9527 219.792 56.5463C219.556 56.1399 219.228 55.7946 218.835 55.5379L123.249 0.593473C122.469 0.164524 121.9 0.515482 121.9 1.37338L122.056 82.3589C122.082 82.8283 122.218 83.285 122.454 83.6916C122.69 84.0983 123.018 84.4433 123.413 84.6986L219.006 139.682C219.732 140.111 220.324 139.76 220.324 138.894Z" fill="#F5F5F5"/>
</g>
<path d="M219.591 140.251C219.316 140.241 219.047 140.16 218.811 140.017L123.218 85.034C122.762 84.7468 122.382 84.3535 122.11 83.8878C121.839 83.422 121.684 82.8975 121.658 82.3589L121.51 1.37338C121.478 1.13587 121.516 0.894024 121.622 0.678582C121.727 0.463141 121.894 0.283835 122.101 0.163454C122.308 0.0430732 122.547 -0.0129476 122.786 0.00251871C123.025 0.017985 123.254 0.104236 123.444 0.25031L219.038 55.187C219.493 55.4751 219.872 55.8686 220.144 56.3342C220.415 56.7997 220.571 57.3237 220.597 57.862L220.73 138.879C220.749 139.115 220.705 139.352 220.602 139.566C220.499 139.78 220.341 139.962 220.145 140.095C219.978 140.196 219.787 140.25 219.591 140.251ZM122.649 0.765051C122.598 0.751493 122.544 0.751493 122.493 0.765051C122.417 0.830627 122.358 0.91425 122.323 1.00827C122.288 1.10228 122.276 1.20369 122.29 1.30319L122.423 82.3199C122.445 82.7298 122.565 83.1284 122.772 83.4825C122.98 83.8366 123.269 84.1359 123.616 84.3555L219.209 139.339C219.443 139.471 219.646 139.51 219.771 139.432C219.896 139.354 219.974 139.167 219.974 138.894L219.841 57.8776C219.816 57.4783 219.699 57.0902 219.498 56.7437C219.298 56.3973 219.02 56.102 218.687 55.8811L123.054 0.897634C122.933 0.819681 122.793 0.77405 122.649 0.765051Z" fill="#F28E36"/>
<path d="M211.246 121.019C208.712 119.217 207.23 117.587 206.224 105.062L206.138 103.994C205.194 92.2247 204.578 84.4569 199.213 81.2514C196.639 79.6916 194.58 81.2514 192.404 82.9438C190.431 84.4491 188.403 85.9933 186.118 84.6908C182.101 82.3511 181.438 77.7185 180.191 69.2643C180.035 68.2192 179.879 67.1195 179.699 65.9653C179.426 64.1637 179.192 62.4869 178.974 60.9115C177.742 52.0361 176.993 46.6704 172.454 43.9329C172.007 43.6161 171.492 43.4081 170.95 43.3255C170.409 43.2429 169.855 43.288 169.334 43.4572C165.895 44.6582 163.204 51.9347 160.358 59.648C160.139 60.2173 159.929 60.8179 159.702 61.4184C157.636 67.1039 155.296 73.5538 152.059 74.747C151.602 74.9145 151.112 74.9763 150.627 74.9277C150.142 74.8791 149.675 74.7213 149.259 74.4662C146.038 72.6413 145.461 67.6499 144.908 62.8144C144.354 57.979 143.816 53.1202 140.774 51.2874C140.516 51.1207 140.221 51.0199 139.915 50.9941C139.609 50.9682 139.302 51.0181 139.019 51.1392C135.245 52.6055 131.899 63.7737 131.868 63.8829L131.088 63.6645C131.228 63.1888 134.574 52.0205 138.7 50.4061C139.094 50.2429 139.521 50.1769 139.946 50.2135C140.371 50.2502 140.78 50.3885 141.141 50.6167C144.502 52.6289 145.087 57.7528 145.656 62.7052C146.226 67.6577 146.74 72.1421 149.626 73.7721C149.941 73.972 150.297 74.0964 150.668 74.1357C151.039 74.1749 151.413 74.1279 151.763 73.9983C154.656 72.9298 157.035 66.3942 158.946 61.1376C159.172 60.5293 159.383 59.9366 159.601 59.3595C162.643 51.1314 165.271 44.0265 169.054 42.7006C169.68 42.4974 170.346 42.4416 170.998 42.5377C171.65 42.6337 172.271 42.879 172.813 43.2544C177.664 46.1868 178.436 51.6852 179.699 60.7945C179.918 62.3543 180.152 64.0389 180.425 65.8327C180.604 66.9947 180.76 68.0944 180.916 69.1317C182.109 77.3519 182.772 81.8754 186.461 83.9967C188.294 85.0496 189.955 83.7783 191.881 82.3121C194.065 80.6431 196.561 78.7635 199.563 80.5651C205.265 83.9811 205.904 91.9128 206.863 103.916L206.949 104.984C207.979 117.759 209.523 118.851 211.629 120.372L211.246 121.019Z" fill="#F28E36"/>
<g opacity="0.4">
<path opacity="0.4" d="M211.246 121.019C208.712 119.217 207.23 117.587 206.224 105.062L206.138 103.994C205.194 92.2247 204.578 84.4569 199.213 81.2514C196.639 79.6916 194.58 81.2514 192.404 82.9438C190.431 84.4491 188.403 85.9933 186.118 84.6908C182.101 82.3511 181.438 77.7185 180.191 69.2643C180.035 68.2192 179.879 67.1195 179.699 65.9653C179.426 64.1637 179.192 62.4869 178.974 60.9115C177.742 52.0361 176.993 46.6704 172.454 43.9329C172.007 43.6161 171.492 43.4081 170.95 43.3255C170.409 43.2429 169.855 43.288 169.334 43.4572C165.895 44.6582 163.204 51.9347 160.358 59.648C160.139 60.2173 159.929 60.8179 159.702 61.4184C157.636 67.1039 155.296 73.5538 152.059 74.747C151.602 74.9145 151.112 74.9763 150.627 74.9277C150.142 74.8791 149.675 74.7213 149.259 74.4662C146.038 72.6413 145.461 67.6499 144.908 62.8144C144.354 57.979 143.816 53.1202 140.774 51.2874C140.516 51.1207 140.221 51.0199 139.915 50.9941C139.609 50.9682 139.302 51.0181 139.019 51.1392C135.245 52.6055 131.899 63.7737 131.868 63.8829L131.088 63.6645C131.228 63.1888 134.574 52.0205 138.7 50.4061C139.094 50.2429 139.521 50.1769 139.946 50.2135C140.371 50.2502 140.78 50.3885 141.141 50.6167C144.502 52.6289 145.087 57.7528 145.656 62.7052C146.226 67.6577 146.74 72.1421 149.626 73.7721C149.941 73.972 150.297 74.0964 150.668 74.1357C151.039 74.1749 151.413 74.1279 151.763 73.9983C154.656 72.9298 157.035 66.3942 158.946 61.1376C159.172 60.5293 159.383 59.9366 159.601 59.3595C162.643 51.1314 165.271 44.0265 169.054 42.7006C169.68 42.4974 170.346 42.4416 170.998 42.5377C171.65 42.6337 172.271 42.879 172.813 43.2544C177.664 46.1868 178.436 51.6852 179.699 60.7945C179.918 62.3543 180.152 64.0389 180.425 65.8327C180.604 66.9947 180.76 68.0944 180.916 69.1317C182.109 77.3519 182.772 81.8754 186.461 83.9967C188.294 85.0496 189.955 83.7783 191.881 82.3121C194.065 80.6431 196.561 78.7635 199.563 80.5651C205.265 83.9811 205.904 91.9128 206.863 103.916L206.949 104.984C207.979 117.759 209.523 118.851 211.629 120.372L211.246 121.019Z" fill="black"/>
</g>
<path d="M198.058 77.8042C198.638 78.1843 199.121 78.6946 199.469 79.2944C199.817 79.8942 200.02 80.567 200.062 81.2592C200.062 82.5305 199.166 83.0452 198.066 82.4135C197.483 82.0362 196.998 81.5265 196.65 80.9261C196.301 80.3257 196.1 79.6516 196.062 78.9585C196.062 77.7184 196.927 77.2037 198.058 77.8042Z" fill="#F28E36"/>
<g opacity="0.2">
<path opacity="0.2" d="M198.058 77.8042C198.638 78.1843 199.121 78.6946 199.469 79.2944C199.817 79.8942 200.02 80.567 200.062 81.2592C200.062 82.5305 199.166 83.0452 198.066 82.4135C197.483 82.0362 196.998 81.5265 196.65 80.9261C196.301 80.3257 196.1 79.6516 196.062 78.9585C196.062 77.7184 196.927 77.2037 198.058 77.8042Z" fill="black"/>
</g>
<path d="M172.656 41.2968C173.237 41.6755 173.721 42.1856 174.067 42.7858C174.414 43.3861 174.615 44.0596 174.653 44.7518C174.653 46.023 173.764 46.5378 172.664 45.9061C172.081 45.5292 171.596 45.0197 171.247 44.4192C170.899 43.8187 170.698 43.1443 170.66 42.4511C170.66 41.1486 171.549 40.6651 172.656 41.2968Z" fill="#F28E36"/>
<g opacity="0.5">
<path opacity="0.5" d="M172.656 41.2968C173.237 41.6755 173.721 42.1856 174.067 42.7858C174.414 43.3861 174.615 44.0596 174.653 44.7518C174.653 46.023 173.764 46.5378 172.664 45.9061C172.081 45.5292 171.596 45.0197 171.247 44.4192C170.899 43.8187 170.698 43.1443 170.66 42.4511C170.66 41.1486 171.549 40.6651 172.656 41.2968Z" fill="#F5F5F5"/>
</g>
<path d="M140.984 48.6669C141.567 49.0421 142.053 49.5501 142.401 50.1494C142.75 50.7486 142.951 51.422 142.989 52.1141C142.989 53.3932 142.1 53.9079 140.992 53.2762C140.412 52.8971 139.929 52.3868 139.582 51.7867C139.235 51.1865 139.034 50.5133 138.996 49.8212C138.988 48.5499 139.885 48.0274 140.984 48.6669Z" fill="#F28E36"/>
<path opacity="0.65" d="M169.529 135.322V54.3057C169.503 53.8372 169.368 53.3815 169.133 52.9751C168.899 52.5687 168.572 52.223 168.18 51.9659L85.3461 4.14206C84.5662 3.71311 83.9968 4.06407 83.9968 4.92196V85.9387C84.0221 86.4072 84.1575 86.8633 84.3919 87.2698C84.6263 87.6763 84.9532 88.0218 85.3461 88.2784L168.18 136.102C168.929 136.539 169.529 136.188 169.529 135.322Z" fill="#505050"/>
<path d="M168.788 136.679C168.513 136.669 168.244 136.588 168.008 136.445L85.151 88.6216C84.6958 88.3312 84.3168 87.9361 84.0455 87.4694C83.7741 87.0027 83.6183 86.4778 83.5911 85.9387V4.92196C83.5603 4.68508 83.6004 4.44439 83.7063 4.23027C83.8122 4.01616 83.9791 3.83821 84.1861 3.71889C84.393 3.59957 84.6306 3.54423 84.869 3.55986C85.1074 3.57548 85.3357 3.66138 85.5253 3.80669L168.359 51.6306C168.814 51.9193 169.193 52.3128 169.465 52.7783C169.736 53.2438 169.892 53.7675 169.919 54.3057V135.322C169.938 135.559 169.894 135.796 169.791 136.01C169.688 136.223 169.53 136.406 169.334 136.539C169.168 136.633 168.979 136.681 168.788 136.679ZM84.7454 4.35262C84.6943 4.33941 84.6406 4.33941 84.5894 4.35262C84.5133 4.4182 84.4549 4.50182 84.4194 4.59584C84.384 4.68985 84.3727 4.79126 84.3866 4.89076V85.9387C84.4111 86.3392 84.5281 86.7287 84.7283 87.0764C84.9286 87.4242 85.2067 87.7208 85.5409 87.943L168.375 135.767C168.454 135.829 168.548 135.87 168.648 135.887C168.747 135.903 168.849 135.894 168.944 135.861C169.069 135.79 169.139 135.595 169.139 135.322V54.3057C169.115 53.906 168.999 53.5175 168.798 53.1709C168.598 52.8243 168.319 52.5292 167.985 52.3091L85.151 4.493C85.0316 4.40921 84.8911 4.36057 84.7454 4.35262Z" fill="#F28E36"/>
<path d="M155.28 116.909V63.5944C155.267 63.3598 155.198 63.1317 155.081 62.9285C154.963 62.7252 154.799 62.5526 154.602 62.4245L146.452 57.7451C146.077 57.5267 145.773 57.6983 145.773 58.135V111.418C145.785 111.653 145.852 111.882 145.97 112.086C146.088 112.289 146.253 112.461 146.452 112.588L154.602 117.268C154.976 117.517 155.28 117.338 155.28 116.909Z" fill="#F28E36"/>
<g opacity="0.3">
<path opacity="0.3" d="M155.28 116.909V63.5944C155.267 63.3598 155.198 63.1317 155.081 62.9285C154.963 62.7252 154.799 62.5526 154.602 62.4245L146.452 57.7451C146.077 57.5267 145.773 57.6983 145.773 58.135V111.418C145.785 111.653 145.852 111.882 145.97 112.086C146.088 112.289 146.253 112.461 146.452 112.588L154.602 117.268C154.976 117.517 155.28 117.338 155.28 116.909Z" fill="black"/>
</g>
<path d="M139.44 107.76V80.0582C139.427 79.8236 139.358 79.5955 139.24 79.3923C139.123 79.1891 138.959 79.0164 138.762 78.8883L130.604 74.2089C130.237 73.9983 129.933 74.2089 129.933 74.5988V102.309C129.947 102.543 130.015 102.77 130.131 102.973C130.247 103.176 130.409 103.349 130.604 103.479L138.762 108.158C139.136 108.369 139.44 108.221 139.44 107.76Z" fill="#F28E36"/>
<g opacity="0.2">
<path opacity="0.2" d="M139.44 107.76V80.0582C139.427 79.8236 139.359 79.5955 139.241 79.3923C139.123 79.1891 138.959 79.0164 138.762 78.8883L130.604 74.2089C130.238 73.9983 129.933 74.2089 129.933 74.5988V102.309C129.947 102.543 130.015 102.77 130.131 102.973C130.248 103.176 130.409 103.349 130.604 103.479L138.762 108.158C139.136 108.369 139.44 108.221 139.44 107.76Z" fill="#F5F5F5"/>
</g>
<path d="M123.616 98.62V56.2788C123.603 56.0443 123.534 55.8162 123.417 55.6129C123.299 55.4097 123.135 55.2371 122.938 55.109L114.78 50.4295C114.413 50.2111 114.109 50.3827 114.109 50.8195V93.1528C114.122 93.3867 114.189 93.6143 114.305 93.8175C114.422 94.0207 114.584 94.1937 114.78 94.3227L122.938 99.0021C123.296 99.2205 123.616 99.0489 123.616 98.62Z" fill="#F28E36"/>
<g opacity="0.2">
<path opacity="0.2" d="M123.616 98.62V56.2788C123.603 56.0443 123.534 55.8162 123.417 55.6129C123.299 55.4097 123.135 55.2371 122.938 55.109L114.78 50.4295C114.413 50.2111 114.109 50.3827 114.109 50.8195V93.1528C114.122 93.3867 114.189 93.6143 114.305 93.8175C114.422 94.0207 114.584 94.1937 114.78 94.3227L122.938 99.0021C123.296 99.2205 123.616 99.0489 123.616 98.62Z" fill="black"/>
</g>
<path d="M107.753 89.5029V28.8417C107.741 28.6077 107.674 28.3798 107.557 28.1765C107.441 27.9733 107.278 27.8003 107.082 27.6718L98.9241 22.9924C98.5576 22.774 98.2534 22.9924 98.2534 23.3824V84.0123C98.2671 84.2459 98.3349 84.4731 98.4512 84.6761C98.5676 84.8791 98.7295 85.0523 98.9241 85.1822L107.082 89.8616C107.456 90.08 107.753 89.9006 107.753 89.5029Z" fill="#F28E36"/>
</g>
<defs>
<filter id="filter0_d_34_10066" x="0" y="0" width="277.923" height="259" filterUnits="userSpaceOnUse" color-interpolation-filters="sRGB">
<feFlood flood-opacity="0" result="BackgroundImageFix"/>
<feColorMatrix in="SourceAlpha" type="matrix" values="0 0 0 0 0 0 0 0 0 0 0 0 0 0 0 0 0 0 127 0" result="hardAlpha"/>
<feOffset dy="5"/>
<feGaussianBlur stdDeviation="2"/>
<feComposite in2="hardAlpha" operator="out"/>
<feColorMatrix type="matrix" values="0 0 0 0 0 0 0 0 0 0 0 0 0 0 0 0 0 0 0.25 0"/>
<feBlend mode="normal" in2="BackgroundImageFix" result="effect1_dropShadow_34_10066"/>
<feBlend mode="normal" in="SourceGraphic" in2="effect1_dropShadow_34_10066" result="shape"/>
</filter>
</defs>
</svg>
