<svg width="22" height="18" viewBox="0 0 22 18" fill="none" xmlns="http://www.w3.org/2000/svg">
<path d="M21.9082 8.55C19.687 3.27375 15.5084 0 11 0C6.49157 0 2.31303 3.27375 0.0918012 8.55C0.0312527 8.69194 0 8.84513 0 9C0 9.15487 0.0312527 9.30806 0.0918012 9.45C2.31303 14.7262 6.49157 18 11 18C15.5084 18 19.687 14.7262 21.9082 9.45C21.9687 9.30806 22 9.15487 22 9C22 8.84513 21.9687 8.69194 21.9082 8.55ZM11 15.75C7.51421 15.75 4.21536 13.1737 2.31303 9C4.21536 4.82625 7.51421 2.25 11 2.25C14.4858 2.25 17.7846 4.82625 19.687 9C17.7846 13.1737 14.4858 15.75 11 15.75ZM11 4.5C10.1301 4.5 9.27967 4.76392 8.55634 5.25839C7.83302 5.75285 7.26926 6.45566 6.93635 7.27792C6.60344 8.10019 6.51633 9.00499 6.68605 9.87791C6.85576 10.7508 7.27468 11.5526 7.88981 12.182C8.50495 12.8113 9.28868 13.2399 10.1419 13.4135C10.9951 13.5872 11.8795 13.4981 12.6832 13.1575C13.4869 12.8169 14.1739 12.2401 14.6572 11.5001C15.1405 10.76 15.3985 9.89002 15.3985 9C15.3985 7.80653 14.9351 6.66193 14.1102 5.81802C13.2853 4.97411 12.1665 4.5 11 4.5ZM11 11.25C10.565 11.25 10.1398 11.118 9.77817 10.8708C9.41651 10.6236 9.13463 10.2722 8.96817 9.86104C8.80172 9.4499 8.75817 8.9975 8.84302 8.56105C8.92788 8.12459 9.13734 7.72368 9.44491 7.40901C9.75248 7.09434 10.1443 6.88005 10.571 6.79323C10.9976 6.70642 11.4398 6.75097 11.8416 6.92127C12.2435 7.09157 12.5869 7.37996 12.8286 7.74997C13.0703 8.11998 13.1992 8.55499 13.1992 9C13.1992 9.59674 12.9675 10.169 12.5551 10.591C12.1427 11.0129 11.5833 11.25 11 11.25Z" fill="#8F8F8F"/>
</svg>
