<svg width="88" height="89" viewBox="0 0 88 89" fill="none" xmlns="http://www.w3.org/2000/svg">
<rect y="0.5" width="88" height="88" rx="44" fill="#F5F5F5"/>
<path d="M55.3164 39.4972L39.2164 30.2639C38.3452 29.7608 37.3564 29.4973 36.3504 29.5C35.3444 29.5028 34.357 29.7717 33.4886 30.2796C32.6202 30.7874 31.9016 31.5161 31.4059 32.3915C30.9103 33.2669 30.6551 34.2579 30.6664 35.2639V53.7972C30.6664 55.3089 31.2669 56.7587 32.3359 57.8277C33.4048 58.8967 34.8546 59.4972 36.3664 59.4972C37.3671 59.4955 38.3499 59.2311 39.2164 58.7305L55.3164 49.4972C56.1815 48.9965 56.8997 48.2771 57.399 47.4113C57.8983 46.5454 58.1612 45.5634 58.1612 44.5639C58.1612 43.5643 57.8983 42.5824 57.399 41.7165C56.8997 40.8506 56.1815 40.1312 55.3164 39.6305V39.4972Z" fill="#F28E36"/>
</svg>
